<mxfile host="app.diagrams.net" modified="2022-02-21T08:43:33.298Z" agent="5.0 (Windows NT 10.0; Win64; x64) AppleWebKit/537.36 (KHTML, like Gecko) Chrome/98.0.4758.102 Safari/537.36" etag="wSYFREPUGeAaLEAJ8Pqw" version="16.6.1" type="github">
  <diagram id="nBHKe3sMG8L7hNi6wl-y" name="페이지-1">
    <mxGraphModel dx="981" dy="520" grid="1" gridSize="10" guides="1" tooltips="1" connect="1" arrows="1" fold="1" page="1" pageScale="1" pageWidth="827" pageHeight="1169" math="0" shadow="0">
      <root>
        <mxCell id="0" />
        <mxCell id="1" parent="0" />
        <mxCell id="qqOCcAnE0tDm_wxe7np--6" value="회원" style="whiteSpace=wrap;html=1;align=center;" parent="1" vertex="1">
          <mxGeometry x="364" y="660" width="100" height="40" as="geometry" />
        </mxCell>
        <mxCell id="qqOCcAnE0tDm_wxe7np--7" value="MY 공고" style="whiteSpace=wrap;html=1;align=center;" parent="1" vertex="1">
          <mxGeometry x="362" y="836" width="100" height="40" as="geometry" />
        </mxCell>
        <mxCell id="qqOCcAnE0tDm_wxe7np--10" value="재직자인증요청" style="whiteSpace=wrap;html=1;align=center;" parent="1" vertex="1">
          <mxGeometry x="180" y="780" width="100" height="40" as="geometry" />
        </mxCell>
        <mxCell id="qqOCcAnE0tDm_wxe7np--11" value="" style="fontSize=12;html=1;endArrow=ERmandOne;startArrow=ERmandOne;rounded=0;exitX=1;exitY=0.5;exitDx=0;exitDy=0;edgeStyle=orthogonalEdgeStyle;entryX=0;entryY=1;entryDx=0;entryDy=0;" parent="1" source="qqOCcAnE0tDm_wxe7np--10" target="qqOCcAnE0tDm_wxe7np--6" edge="1">
          <mxGeometry width="100" height="100" relative="1" as="geometry">
            <mxPoint x="360" y="860" as="sourcePoint" />
            <mxPoint x="360" y="700" as="targetPoint" />
          </mxGeometry>
        </mxCell>
        <mxCell id="qqOCcAnE0tDm_wxe7np--14" value="채용공고" style="whiteSpace=wrap;html=1;align=center;" parent="1" vertex="1">
          <mxGeometry x="588" y="836" width="100" height="40" as="geometry" />
        </mxCell>
        <mxCell id="qqOCcAnE0tDm_wxe7np--16" value="직종" style="whiteSpace=wrap;html=1;align=center;" parent="1" vertex="1">
          <mxGeometry x="510" y="660" width="100" height="40" as="geometry" />
        </mxCell>
        <mxCell id="qqOCcAnE0tDm_wxe7np--19" value="회사" style="whiteSpace=wrap;html=1;align=center;" parent="1" vertex="1">
          <mxGeometry x="510" y="720" width="100" height="40" as="geometry" />
        </mxCell>
        <mxCell id="qqOCcAnE0tDm_wxe7np--22" value="취준생 커뮤니티&lt;br&gt;게시글" style="whiteSpace=wrap;html=1;align=center;" parent="1" vertex="1">
          <mxGeometry x="124" y="575" width="100" height="40" as="geometry" />
        </mxCell>
        <mxCell id="qqOCcAnE0tDm_wxe7np--25" value="취준생 커뮤니티&lt;br&gt;카테고리" style="whiteSpace=wrap;html=1;align=center;" parent="1" vertex="1">
          <mxGeometry x="124" y="500" width="100" height="40" as="geometry" />
        </mxCell>
        <mxCell id="qqOCcAnE0tDm_wxe7np--28" value="" style="fontSize=12;html=1;endArrow=ERoneToMany;startArrow=ERmandOne;rounded=0;exitX=0;exitY=0.5;exitDx=0;exitDy=0;entryX=1;entryY=0.5;entryDx=0;entryDy=0;" parent="1" source="qqOCcAnE0tDm_wxe7np--14" target="qqOCcAnE0tDm_wxe7np--7" edge="1">
          <mxGeometry width="100" height="100" relative="1" as="geometry">
            <mxPoint x="358" y="656" as="sourcePoint" />
            <mxPoint x="458" y="556" as="targetPoint" />
          </mxGeometry>
        </mxCell>
        <mxCell id="qqOCcAnE0tDm_wxe7np--31" value="" style="fontSize=12;html=1;endArrow=ERmandOne;startArrow=ERmandOne;rounded=0;exitX=1;exitY=0.5;exitDx=0;exitDy=0;entryX=0;entryY=0.5;entryDx=0;entryDy=0;" parent="1" source="qqOCcAnE0tDm_wxe7np--6" target="qqOCcAnE0tDm_wxe7np--16" edge="1">
          <mxGeometry width="100" height="100" relative="1" as="geometry">
            <mxPoint x="360" y="630" as="sourcePoint" />
            <mxPoint x="460" y="530" as="targetPoint" />
          </mxGeometry>
        </mxCell>
        <mxCell id="qqOCcAnE0tDm_wxe7np--32" value="" style="fontSize=12;html=1;endArrow=ERoneToMany;startArrow=ERmandOne;rounded=0;exitX=0;exitY=0.5;exitDx=0;exitDy=0;edgeStyle=orthogonalEdgeStyle;" parent="1" source="qqOCcAnE0tDm_wxe7np--19" edge="1">
          <mxGeometry width="100" height="100" relative="1" as="geometry">
            <mxPoint x="360" y="630" as="sourcePoint" />
            <mxPoint x="460" y="700" as="targetPoint" />
          </mxGeometry>
        </mxCell>
        <mxCell id="qqOCcAnE0tDm_wxe7np--33" value="" style="fontSize=12;html=1;endArrow=ERoneToMany;startArrow=ERmandOne;rounded=0;exitX=1;exitY=0.5;exitDx=0;exitDy=0;edgeStyle=orthogonalEdgeStyle;entryX=0.324;entryY=-0.003;entryDx=0;entryDy=0;entryPerimeter=0;" parent="1" source="qqOCcAnE0tDm_wxe7np--19" edge="1" target="qqOCcAnE0tDm_wxe7np--14">
          <mxGeometry width="100" height="100" relative="1" as="geometry">
            <mxPoint x="360" y="630" as="sourcePoint" />
            <mxPoint x="621" y="840" as="targetPoint" />
          </mxGeometry>
        </mxCell>
        <mxCell id="qqOCcAnE0tDm_wxe7np--35" value="" style="fontSize=12;html=1;endArrow=ERoneToMany;startArrow=ERmandOne;rounded=0;exitX=1;exitY=0.5;exitDx=0;exitDy=0;entryX=0.5;entryY=0;entryDx=0;entryDy=0;edgeStyle=orthogonalEdgeStyle;" parent="1" source="qqOCcAnE0tDm_wxe7np--16" target="qqOCcAnE0tDm_wxe7np--14" edge="1">
          <mxGeometry width="100" height="100" relative="1" as="geometry">
            <mxPoint x="360" y="630" as="sourcePoint" />
            <mxPoint x="460" y="530" as="targetPoint" />
          </mxGeometry>
        </mxCell>
        <mxCell id="qqOCcAnE0tDm_wxe7np--37" value="" style="fontSize=12;html=1;endArrow=ERoneToMany;startArrow=ERmandOne;rounded=0;entryX=0.5;entryY=0;entryDx=0;entryDy=0;exitX=0.5;exitY=1;exitDx=0;exitDy=0;" parent="1" source="qqOCcAnE0tDm_wxe7np--25" target="qqOCcAnE0tDm_wxe7np--22" edge="1">
          <mxGeometry width="100" height="100" relative="1" as="geometry">
            <mxPoint x="344" y="540" as="sourcePoint" />
            <mxPoint x="258" y="625" as="targetPoint" />
          </mxGeometry>
        </mxCell>
        <mxCell id="qqOCcAnE0tDm_wxe7np--38" value="취준생 커뮤니티&lt;br&gt;댓글" style="whiteSpace=wrap;html=1;align=center;" parent="1" vertex="1">
          <mxGeometry x="264" y="575" width="100" height="40" as="geometry" />
        </mxCell>
        <mxCell id="qqOCcAnE0tDm_wxe7np--39" value="" style="fontSize=12;html=1;endArrow=ERoneToMany;startArrow=ERmandOne;rounded=0;entryX=0;entryY=0.5;entryDx=0;entryDy=0;exitX=1;exitY=0.5;exitDx=0;exitDy=0;" parent="1" source="qqOCcAnE0tDm_wxe7np--22" target="qqOCcAnE0tDm_wxe7np--38" edge="1">
          <mxGeometry width="100" height="100" relative="1" as="geometry">
            <mxPoint x="258" y="660" as="sourcePoint" />
            <mxPoint x="184" y="625" as="targetPoint" />
          </mxGeometry>
        </mxCell>
        <mxCell id="qqOCcAnE0tDm_wxe7np--40" value="" style="fontSize=12;html=1;endArrow=ERoneToMany;startArrow=ERmandOne;rounded=0;entryX=0.5;entryY=1;entryDx=0;entryDy=0;exitX=0.129;exitY=0.017;exitDx=0;exitDy=0;edgeStyle=orthogonalEdgeStyle;exitPerimeter=0;" parent="1" source="qqOCcAnE0tDm_wxe7np--6" target="qqOCcAnE0tDm_wxe7np--38" edge="1">
          <mxGeometry width="100" height="100" relative="1" as="geometry">
            <mxPoint x="399" y="670" as="sourcePoint" />
            <mxPoint x="350" y="635" as="targetPoint" />
          </mxGeometry>
        </mxCell>
        <mxCell id="qqOCcAnE0tDm_wxe7np--42" value="기업등록요청" style="whiteSpace=wrap;html=1;align=center;" parent="1" vertex="1">
          <mxGeometry x="180" y="730" width="100" height="40" as="geometry" />
        </mxCell>
        <mxCell id="qqOCcAnE0tDm_wxe7np--43" value="" style="fontSize=12;html=1;endArrow=ERoneToMany;startArrow=ERmandOne;rounded=0;exitX=0.5;exitY=1;exitDx=0;exitDy=0;entryX=0.5;entryY=0;entryDx=0;entryDy=0;" parent="1" source="qqOCcAnE0tDm_wxe7np--6" target="qqOCcAnE0tDm_wxe7np--7" edge="1">
          <mxGeometry width="100" height="100" relative="1" as="geometry">
            <mxPoint x="360" y="620" as="sourcePoint" />
            <mxPoint x="460" y="520" as="targetPoint" />
          </mxGeometry>
        </mxCell>
        <mxCell id="qqOCcAnE0tDm_wxe7np--44" value="" style="fontSize=12;html=1;endArrow=ERoneToMany;startArrow=ERmandOne;rounded=0;entryX=1;entryY=0.5;entryDx=0;entryDy=0;edgeStyle=orthogonalEdgeStyle;exitX=0;exitY=0.75;exitDx=0;exitDy=0;" parent="1" source="qqOCcAnE0tDm_wxe7np--6" target="qqOCcAnE0tDm_wxe7np--42" edge="1">
          <mxGeometry width="100" height="100" relative="1" as="geometry">
            <mxPoint x="320" y="690" as="sourcePoint" />
            <mxPoint x="424" y="820" as="targetPoint" />
          </mxGeometry>
        </mxCell>
        <mxCell id="IfrLG5-g77lw6jWDV3lE-1" value="취준생 커뮤니티&lt;br&gt;게시글" style="whiteSpace=wrap;html=1;align=center;" vertex="1" parent="1">
          <mxGeometry x="124" y="575" width="100" height="40" as="geometry" />
        </mxCell>
        <mxCell id="IfrLG5-g77lw6jWDV3lE-5" value="현직자 커뮤니티&lt;br&gt;게시글" style="whiteSpace=wrap;html=1;align=center;" vertex="1" parent="1">
          <mxGeometry x="461" y="575" width="100" height="40" as="geometry" />
        </mxCell>
        <mxCell id="IfrLG5-g77lw6jWDV3lE-6" value="현직자 커뮤니티&lt;br&gt;댓글" style="whiteSpace=wrap;html=1;align=center;" vertex="1" parent="1">
          <mxGeometry x="584" y="575" width="100" height="40" as="geometry" />
        </mxCell>
        <mxCell id="IfrLG5-g77lw6jWDV3lE-7" value="" style="fontSize=12;html=1;endArrow=ERoneToMany;startArrow=ERmandOne;rounded=0;entryX=0.5;entryY=1;entryDx=0;entryDy=0;exitX=0.853;exitY=-0.034;exitDx=0;exitDy=0;exitPerimeter=0;edgeStyle=orthogonalEdgeStyle;" edge="1" parent="1" source="qqOCcAnE0tDm_wxe7np--6" target="IfrLG5-g77lw6jWDV3lE-5">
          <mxGeometry width="100" height="100" relative="1" as="geometry">
            <mxPoint x="399" y="670" as="sourcePoint" />
            <mxPoint x="324" y="625" as="targetPoint" />
          </mxGeometry>
        </mxCell>
        <mxCell id="IfrLG5-g77lw6jWDV3lE-10" value="" style="fontSize=12;html=1;endArrow=ERoneToMany;startArrow=ERmandOne;rounded=0;entryX=0.415;entryY=0.953;entryDx=0;entryDy=0;entryPerimeter=0;exitX=1;exitY=0;exitDx=0;exitDy=0;edgeStyle=orthogonalEdgeStyle;" edge="1" parent="1" source="qqOCcAnE0tDm_wxe7np--6" target="IfrLG5-g77lw6jWDV3lE-6">
          <mxGeometry width="100" height="100" relative="1" as="geometry">
            <mxPoint x="460" y="658" as="sourcePoint" />
            <mxPoint x="490" y="610" as="targetPoint" />
          </mxGeometry>
        </mxCell>
        <mxCell id="IfrLG5-g77lw6jWDV3lE-11" value="" style="fontSize=12;html=1;endArrow=ERoneToMany;startArrow=ERmandOne;rounded=0;entryX=0;entryY=0.5;entryDx=0;entryDy=0;exitX=1;exitY=0.5;exitDx=0;exitDy=0;" edge="1" parent="1" source="IfrLG5-g77lw6jWDV3lE-5" target="IfrLG5-g77lw6jWDV3lE-6">
          <mxGeometry width="100" height="100" relative="1" as="geometry">
            <mxPoint x="275" y="605" as="sourcePoint" />
            <mxPoint x="315" y="605" as="targetPoint" />
          </mxGeometry>
        </mxCell>
        <mxCell id="IfrLG5-g77lw6jWDV3lE-12" value="" style="fontSize=12;html=1;endArrow=ERoneToMany;startArrow=ERmandOne;rounded=0;entryX=0.5;entryY=1;entryDx=0;entryDy=0;exitX=0;exitY=0;exitDx=0;exitDy=0;edgeStyle=orthogonalEdgeStyle;" edge="1" parent="1" source="qqOCcAnE0tDm_wxe7np--6" target="IfrLG5-g77lw6jWDV3lE-1">
          <mxGeometry width="100" height="100" relative="1" as="geometry">
            <mxPoint x="255" y="685" as="sourcePoint" />
            <mxPoint x="180" y="640" as="targetPoint" />
          </mxGeometry>
        </mxCell>
        <mxCell id="IfrLG5-g77lw6jWDV3lE-17" value="기업리뷰" style="whiteSpace=wrap;html=1;align=center;" vertex="1" parent="1">
          <mxGeometry x="510" y="786" width="100" height="40" as="geometry" />
        </mxCell>
        <mxCell id="IfrLG5-g77lw6jWDV3lE-18" value="" style="fontSize=12;html=1;endArrow=ERoneToMany;startArrow=ERmandOne;rounded=0;exitX=0.75;exitY=1;exitDx=0;exitDy=0;entryX=0;entryY=0.5;entryDx=0;entryDy=0;edgeStyle=orthogonalEdgeStyle;" edge="1" parent="1" source="qqOCcAnE0tDm_wxe7np--6" target="IfrLG5-g77lw6jWDV3lE-17">
          <mxGeometry width="100" height="100" relative="1" as="geometry">
            <mxPoint x="424" y="710" as="sourcePoint" />
            <mxPoint x="422" y="846" as="targetPoint" />
          </mxGeometry>
        </mxCell>
        <mxCell id="IfrLG5-g77lw6jWDV3lE-19" value="" style="fontSize=12;html=1;endArrow=ERoneToMany;startArrow=ERmandOne;rounded=0;exitX=0.5;exitY=1;exitDx=0;exitDy=0;edgeStyle=orthogonalEdgeStyle;entryX=0.5;entryY=0;entryDx=0;entryDy=0;" edge="1" parent="1" source="qqOCcAnE0tDm_wxe7np--19" target="IfrLG5-g77lw6jWDV3lE-17">
          <mxGeometry width="100" height="100" relative="1" as="geometry">
            <mxPoint x="520" y="750" as="sourcePoint" />
            <mxPoint x="470" y="710" as="targetPoint" />
          </mxGeometry>
        </mxCell>
        <mxCell id="IfrLG5-g77lw6jWDV3lE-20" value="관리자" style="whiteSpace=wrap;html=1;align=center;" vertex="1" parent="1">
          <mxGeometry x="364" y="380" width="100" height="40" as="geometry" />
        </mxCell>
        <mxCell id="IfrLG5-g77lw6jWDV3lE-21" value="1:1문의" style="whiteSpace=wrap;html=1;align=center;" vertex="1" parent="1">
          <mxGeometry x="364" y="450" width="100" height="40" as="geometry" />
        </mxCell>
        <mxCell id="IfrLG5-g77lw6jWDV3lE-22" value="" style="fontSize=12;html=1;endArrow=ERoneToMany;startArrow=ERmandOne;rounded=0;exitX=0.5;exitY=0;exitDx=0;exitDy=0;entryX=0.5;entryY=1;entryDx=0;entryDy=0;" edge="1" parent="1" source="qqOCcAnE0tDm_wxe7np--6" target="IfrLG5-g77lw6jWDV3lE-21">
          <mxGeometry width="100" height="100" relative="1" as="geometry">
            <mxPoint x="390" y="640" as="sourcePoint" />
            <mxPoint x="490" y="540" as="targetPoint" />
          </mxGeometry>
        </mxCell>
        <mxCell id="IfrLG5-g77lw6jWDV3lE-23" value="" style="fontSize=12;html=1;endArrow=ERoneToMany;startArrow=ERmandOne;rounded=0;entryX=0.5;entryY=0;entryDx=0;entryDy=0;exitX=0.5;exitY=1;exitDx=0;exitDy=0;" edge="1" parent="1" source="IfrLG5-g77lw6jWDV3lE-20" target="IfrLG5-g77lw6jWDV3lE-21">
          <mxGeometry width="100" height="100" relative="1" as="geometry">
            <mxPoint x="184" y="550" as="sourcePoint" />
            <mxPoint x="184" y="585" as="targetPoint" />
          </mxGeometry>
        </mxCell>
        <mxCell id="IfrLG5-g77lw6jWDV3lE-24" value="1:1문의 답변" style="whiteSpace=wrap;html=1;align=center;" vertex="1" parent="1">
          <mxGeometry x="488" y="450" width="100" height="40" as="geometry" />
        </mxCell>
        <mxCell id="IfrLG5-g77lw6jWDV3lE-25" value="" style="fontSize=12;html=1;endArrow=ERmandOne;startArrow=ERmandOne;rounded=0;exitX=1;exitY=0.5;exitDx=0;exitDy=0;entryX=0;entryY=0.5;entryDx=0;entryDy=0;" edge="1" parent="1" source="IfrLG5-g77lw6jWDV3lE-21" target="IfrLG5-g77lw6jWDV3lE-24">
          <mxGeometry width="100" height="100" relative="1" as="geometry">
            <mxPoint x="390" y="640" as="sourcePoint" />
            <mxPoint x="490" y="470" as="targetPoint" />
          </mxGeometry>
        </mxCell>
        <mxCell id="IfrLG5-g77lw6jWDV3lE-26" value="" style="fontSize=12;html=1;endArrow=ERoneToMany;startArrow=ERmandOne;rounded=0;entryX=0.5;entryY=0;entryDx=0;entryDy=0;exitX=0.75;exitY=1;exitDx=0;exitDy=0;edgeStyle=orthogonalEdgeStyle;" edge="1" parent="1" source="IfrLG5-g77lw6jWDV3lE-20" target="IfrLG5-g77lw6jWDV3lE-24">
          <mxGeometry width="100" height="100" relative="1" as="geometry">
            <mxPoint x="424" y="430" as="sourcePoint" />
            <mxPoint x="424" y="460" as="targetPoint" />
          </mxGeometry>
        </mxCell>
        <mxCell id="IfrLG5-g77lw6jWDV3lE-27" value="FAQ" style="whiteSpace=wrap;html=1;align=center;" vertex="1" parent="1">
          <mxGeometry x="364" y="310" width="100" height="40" as="geometry" />
        </mxCell>
        <mxCell id="IfrLG5-g77lw6jWDV3lE-28" value="FAQ 카테고리" style="whiteSpace=wrap;html=1;align=center;" vertex="1" parent="1">
          <mxGeometry x="364" y="240" width="100" height="40" as="geometry" />
        </mxCell>
        <mxCell id="IfrLG5-g77lw6jWDV3lE-29" value="" style="fontSize=12;html=1;endArrow=ERoneToMany;startArrow=ERmandOne;rounded=0;entryX=0.5;entryY=0;entryDx=0;entryDy=0;exitX=0.5;exitY=1;exitDx=0;exitDy=0;" edge="1" parent="1" source="IfrLG5-g77lw6jWDV3lE-27" target="IfrLG5-g77lw6jWDV3lE-20">
          <mxGeometry width="100" height="100" relative="1" as="geometry">
            <mxPoint x="424" y="430" as="sourcePoint" />
            <mxPoint x="424" y="460" as="targetPoint" />
          </mxGeometry>
        </mxCell>
        <mxCell id="IfrLG5-g77lw6jWDV3lE-30" value="" style="fontSize=12;html=1;endArrow=ERoneToMany;startArrow=ERmandOne;rounded=0;exitX=0.5;exitY=1;exitDx=0;exitDy=0;entryX=0.5;entryY=0;entryDx=0;entryDy=0;" edge="1" parent="1" source="IfrLG5-g77lw6jWDV3lE-28" target="IfrLG5-g77lw6jWDV3lE-27">
          <mxGeometry width="100" height="100" relative="1" as="geometry">
            <mxPoint x="424" y="360" as="sourcePoint" />
            <mxPoint x="414" y="310" as="targetPoint" />
          </mxGeometry>
        </mxCell>
        <mxCell id="IfrLG5-g77lw6jWDV3lE-31" value="공지사항" style="whiteSpace=wrap;html=1;align=center;" vertex="1" parent="1">
          <mxGeometry x="230" y="380" width="100" height="40" as="geometry" />
        </mxCell>
        <mxCell id="IfrLG5-g77lw6jWDV3lE-33" value="" style="fontSize=12;html=1;endArrow=ERoneToMany;startArrow=ERmandOne;rounded=0;entryX=1;entryY=0.5;entryDx=0;entryDy=0;exitX=0;exitY=0.5;exitDx=0;exitDy=0;" edge="1" parent="1" source="IfrLG5-g77lw6jWDV3lE-20" target="IfrLG5-g77lw6jWDV3lE-31">
          <mxGeometry width="100" height="100" relative="1" as="geometry">
            <mxPoint x="424" y="360" as="sourcePoint" />
            <mxPoint x="424" y="390" as="targetPoint" />
          </mxGeometry>
        </mxCell>
      </root>
    </mxGraphModel>
  </diagram>
</mxfile>
